<?xml version="1.0" encoding="iso-8859-1"?>
<!-- Generator: Adobe Illustrator 19.0.0, SVG Export Plug-In . SVG Version: 6.00 Build 0)  -->
<svg version="1.1" id="Layer_1" xmlns="http://www.w3.org/2000/svg" xmlns:xlink="http://www.w3.org/1999/xlink" x="0px" y="0px"
	 viewBox="0 0 324.143 324.143" style="enable-background:new 0 0 324.143 324.143;" xml:space="preserve">
<g>
	<g>
		<g>
			<path d="M162.071,0C73.162,0,0.83,72.332,0.83,161.241c0,37.076,12.788,73.004,36.1,101.677
				c-6.65,16.756-17.788,31.245-32.401,42.089c-2.237,1.66-3.37,4.424-2.94,7.177c0.429,2.754,2.349,5.042,4.985,5.942
				c11.683,3.992,23.856,6.017,36.182,6.017c19.572,0,38.698-5.093,55.569-14.763c20.158,8.696,41.584,13.104,63.747,13.104
				c88.909,0,161.241-72.333,161.241-161.242S250.98,0,162.071,0z M162.071,307.483c-21.32,0-41.881-4.492-61.11-13.351
				c-2.292-1.057-4.959-0.89-7.102,0.443c-15.313,9.529-32.985,14.566-51.104,14.566c-6.053,0-12.065-0.564-17.981-1.684
				c12.521-12.12,22.014-26.95,27.788-43.547c0.878-2.525,0.346-5.328-1.398-7.354C28.378,230.07,15.83,196.22,15.83,161.241
				C15.83,80.604,81.434,15,162.071,15s146.241,65.604,146.241,146.241C308.313,241.88,242.709,307.483,162.071,307.483z"/>
			<path d="M205.201,113.646h-21.2v-6.94c0-0.568,0.057-0.932,0.106-1.142c0.099-0.017,0.227-0.029,0.378-0.029h20.258
				c4.143,0,7.5-3.357,7.5-7.5V67.093c0-4.13-3.339-7.483-7.47-7.5l-27.926-0.113c-33.585,0-45.502,24.429-45.502,45.349v8.818
				h-10.406c-4.143,0-7.5,3.357-7.5,7.5v36.115c0,4.143,3.357,7.5,7.5,7.5h10.556v82.782c0,4.143,3.357,7.5,7.5,7.5h36.112
				c4.143,0,7.5-3.357,7.5-7.5v-82.782h19.304c3.879,0,7.117-2.957,7.469-6.819l3.29-36.115c0.191-2.099-0.509-4.182-1.93-5.737
				C209.319,114.533,207.309,113.646,205.201,113.646z M195.063,149.762h-19.956c-4.143,0-7.5,3.357-7.5,7.5v82.782h-21.112v-82.782
				c0-4.143-3.357-7.5-7.5-7.5h-10.556v-21.115h10.406c4.143,0,7.5-3.357,7.5-7.5v-16.318c0-9.125,2.972-30.349,30.472-30.349
				l20.426,0.083v15.973h-12.758c-7.458,0-15.484,5.061-15.484,16.171v14.44c0,4.143,3.357,7.5,7.5,7.5h20.486L195.063,149.762z"/>
		</g>
	</g>
</g>
<g>
</g>
<g>
</g>
<g>
</g>
<g>
</g>
<g>
</g>
<g>
</g>
<g>
</g>
<g>
</g>
<g>
</g>
<g>
</g>
<g>
</g>
<g>
</g>
<g>
</g>
<g>
</g>
<g>
</g>
</svg>
